<svg width="259" height="161" viewBox="0 0 259 161" fill="none" xmlns="http://www.w3.org/2000/svg">
<path d="M259 4.5C259 2.01471 256.985 0 254.5 0H4.5C2.01472 0 0 2.01472 0 4.5V161H259V4.5Z" fill="#193445" fill-opacity="0.82"/>
<path d="M153.85 74.433C153.846 74.3943 153.841 74.3597 153.835 74.3212C153.766 73.8789 153.262 70.9144 151.921 69.5497C150.084 67.6141 148.022 67.6063 147.08 67.4897C140.317 67 130.173 67 130.173 67H130.149C130.149 67 120.005 67 113.242 67.4897C112.3 67.6063 110.239 67.6141 108.401 69.5497C107.066 70.9077 106.561 73.8497 106.488 74.3145C106.481 74.3575 106.476 74.396 106.471 74.4392C106.411 74.9558 106 78.6002 106 82.2513V85.9436C106 89.6025 106.421 93.2614 106.48 93.7541C106.484 93.7928 106.489 93.8274 106.495 93.8659C106.564 94.3082 107.068 97.2727 108.409 98.6375C110.246 100.573 112.663 100.511 113.736 100.713C117.473 101.074 129.375 101.195 130.127 101.202C130.153 101.203 130.175 101.203 130.2 101.203C130.859 101.201 140.55 101.17 147.08 100.697C148.022 100.581 150.084 100.573 151.921 98.6375C153.262 97.2727 153.766 94.3082 153.835 93.8659C153.841 93.8274 153.846 93.7928 153.85 93.7541C153.909 93.2614 154.33 89.6025 154.33 85.9436V82.2513C154.33 78.5852 153.909 74.9258 153.85 74.433Z" fill="white"/>
<path d="M126 77V91.617L140 84.3334L126 77Z" fill="#295598"/>
</svg>
