<svg width="579" height="657" viewBox="0 0 579 657" fill="none" xmlns="http://www.w3.org/2000/svg">
<path d="M104.064 111.685C104.064 111.685 39.5524 22.394 57.3234 3.01208C75.0879 -16.3762 215.519 58.3681 310.832 211.827C310.832 211.827 116.988 58.3681 104.064 111.685Z" fill="#0E486D"/>
<path d="M0 138.464C0 138.464 21.6602 218.297 116.969 282.91C212.279 347.529 76.5841 221.53 162.2 240.918C247.814 260.291 349.586 300.683 349.586 300.683C349.586 300.683 338.462 261.678 236.508 202.142C153.878 153.888 11.3104 109.389 0 138.464Z" fill="#C91A7B"/>
<path d="M194.508 337.836C194.508 337.836 209.049 344.292 204.203 366.909C199.355 389.529 184.817 591.46 205.814 656.071C205.814 656.071 213.888 644.762 212.279 583.374C210.664 521.987 228.432 481.61 267.201 441.216C305.969 400.833 367.353 376.597 401.28 323.295C435.198 269.986 462.664 265.139 465.897 242.518C465.897 242.518 525.662 221.53 578.971 236.07C578.971 236.07 583.81 216.676 469.127 219.899C469.127 219.899 456.202 185.985 409.356 190.839C362.51 195.678 370.585 236.07 335.046 252.228C335.046 252.228 347.971 268.369 380.276 263.524C412.586 258.685 423.888 247.359 399.66 281.297C375.429 315.226 265.371 378.97 240.412 359.975C196.238 326.348 194.508 337.836 194.508 337.836Z" fill="#2576B8"/>
<path d="M225.212 625.366C218.551 592.755 217.286 517.107 253.847 471.092C253.847 471.092 244.601 557.521 247.829 586.596C251.059 615.688 230.719 652.329 225.212 625.366Z" fill="#383D3F"/>
<path d="M272.737 444.622C272.737 444.622 255.09 532.876 259.114 588.217C263.307 645.72 296.297 591.937 286.604 561.24C276.913 530.542 272.737 444.622 272.737 444.622Z" fill="#383D3F"/>
<path d="M303.61 574.238C306.689 574.238 308.809 575.696 309.935 577.186V574.537H313.743V592.782H309.935V590.066C308.775 591.623 306.59 593.079 303.543 593.079C298.809 593.079 295 589.205 295 583.576C295 577.946 298.809 574.238 303.61 574.238ZM304.404 577.516C301.59 577.516 298.875 579.635 298.875 583.576C298.875 587.517 301.59 589.802 304.404 589.802C307.252 589.802 309.935 587.583 309.935 583.642C309.935 579.735 307.252 577.516 304.404 577.516Z" fill="black"/>
<path d="M319.901 574.537L325.067 589.404L330.233 574.537H334.24L327.286 592.782H322.782L315.861 574.537H319.901Z" fill="black"/>
<path d="M343.745 574.238C346.823 574.238 348.944 575.696 350.07 577.186V574.537H353.876V592.782H350.07V590.066C348.91 591.623 346.725 593.079 343.678 593.079C338.943 593.079 335.135 589.205 335.135 583.576C335.135 577.946 338.943 574.238 343.745 574.238ZM344.539 577.516C341.726 577.516 339.008 579.635 339.008 583.576C339.008 587.517 341.725 589.802 344.539 589.802C347.387 589.802 350.069 587.583 350.069 583.642C350.069 579.735 347.387 577.516 344.539 577.516Z" fill="black"/>
<path d="M358.744 577.616H356.592V574.537H358.744V570H362.552V574.537H366.989V577.616H362.552V587.716C362.552 589.073 363.081 589.636 364.671 589.636H366.989V592.782H364.009C360.764 592.782 358.744 591.424 358.744 587.715V577.616Z" fill="black"/>
<path d="M377.12 574.238C380.2 574.238 382.319 575.696 383.445 577.186V574.537H387.253V592.782H383.445V590.066C382.286 591.623 380.1 593.079 377.055 593.079C372.32 593.079 368.512 589.205 368.512 583.576C368.512 577.946 372.32 574.238 377.12 574.238ZM377.916 577.516C375.101 577.516 372.386 579.635 372.386 583.576C372.386 587.517 375.101 589.802 377.916 589.802C380.764 589.802 383.445 587.583 383.445 583.642C383.445 579.735 380.764 577.516 377.916 577.516Z" fill="black"/>
<path d="M394.604 592.782H390.828V574.537H394.604V577.186C395.664 575.365 397.484 574.238 400.067 574.238V578.145H399.106C396.326 578.145 394.603 579.305 394.603 583.178L394.604 592.782Z" fill="black"/>
<path d="M420.094 573.36C420.094 573.987 419.586 574.496 418.956 574.496C418.329 574.496 417.82 573.987 417.82 573.36C417.82 572.732 418.329 572.224 418.956 572.224C419.586 572.223 420.094 572.732 420.094 573.36Z" fill="#2576B8"/>
<path d="M425.822 575.542C425.822 576.823 424.784 577.861 423.504 577.861C422.223 577.861 421.186 576.823 421.186 575.542C421.186 574.262 422.223 573.224 423.504 573.224C424.784 573.224 425.822 574.262 425.822 575.542Z" fill="#2576B8"/>
<path d="M403.044 591.546C403.044 592.6 402.189 593.456 401.135 593.456C400.082 593.456 399.227 592.6 399.227 591.546C399.227 590.493 400.082 589.637 401.135 589.637C402.189 589.637 403.044 590.493 403.044 591.546Z" fill="#2576B8"/>
<path d="M419.022 595.564C419.022 595.883 415.869 596.141 411.977 596.141C408.083 596.141 404.93 595.883 404.93 595.564C404.93 595.244 408.083 594.986 411.977 594.986C415.868 594.986 419.022 595.244 419.022 595.564Z" fill="#C2C0C0"/>
<path d="M417.171 585.066C418.444 584.915 419.708 584.689 420.876 584.356C420.913 584.25 420.965 583.841 420.965 583.212C420.965 577.847 417.289 574.238 412.09 574.238C407.364 574.238 403.932 577.058 403.153 581.607C404.289 581.757 405.624 581.774 406.978 581.719C407.474 579.021 409.467 577.418 411.925 577.418C414.74 577.418 416.959 579.206 417.024 582.019C414.727 582.587 408.695 582.671 408.695 582.671C408.063 582.684 407.471 582.69 406.918 582.69C401.128 582.694 399.45 582.088 398.964 581.73C398.6 581.529 398.681 581.235 399.505 580.814C399.505 580.814 400.493 580.29 401.596 579.971L401.944 579.332C401.944 579.332 394.978 580.789 396.341 582.527C397.275 583.718 400.417 584.368 403.032 584.712C403.484 589.827 407.192 593.079 412.09 593.079C416.56 593.079 419.441 590.529 420.468 587.351H416.395C415.699 588.775 414.408 589.901 412.09 589.901C409.309 589.901 407.156 588.079 406.891 585.066C406.891 585.066 412.111 585.668 417.171 585.066Z" fill="#2576B8"/>
<path d="M408.451 588.516C407.588 587.688 407.02 586.517 406.892 585.067C406.892 585.067 405.133 584.988 403.033 584.713C403.16 586.145 403.549 587.424 404.141 588.534C405.246 588.603 406.99 588.665 408.451 588.516Z" fill="url(#paint0_linear_1601_20498)"/>
<path d="M373.775 607.029H370.82L370.239 608.397H369.107L371.766 602.489H372.847L375.514 608.397H374.366L373.775 607.029ZM373.413 606.168L372.299 603.586L371.192 606.168H373.413Z" fill="black"/>
<path d="M382.899 604.589C382.899 605.89 381.937 606.69 380.383 606.69H379.05V608.396H377.953V602.488H380.383C381.937 602.488 382.899 603.28 382.899 604.589ZM381.793 604.589C381.793 603.846 381.295 603.416 380.332 603.416H379.05V605.761H380.332C381.295 605.761 381.793 605.332 381.793 604.589Z" fill="black"/>
<path d="M390.631 604.589C390.631 605.89 389.669 606.69 388.117 606.69H386.783V608.396H385.686V602.488H388.117C389.669 602.488 390.631 603.28 390.631 604.589ZM389.527 604.589C389.527 603.846 389.029 603.416 388.066 603.416H386.783V605.761H388.066C389.029 605.761 389.527 605.332 389.527 604.589Z" fill="black"/>
<path d="M393.418 602.488H394.514V607.468H397.604V608.396H393.418V602.488Z" fill="black"/>
<path d="M400.162 602.488H401.259V608.396H400.162V602.488Z" fill="black"/>
<path d="M408.974 607.476V608.396H404.543V602.488H408.855V603.408H405.641V604.944H408.493V605.847H405.641V607.476H408.974Z" fill="black"/>
<path d="M411.887 602.488H414.47C416.385 602.488 417.693 603.669 417.693 605.442C417.693 607.214 416.385 608.396 414.47 608.396H411.887V602.488ZM414.419 607.468C415.735 607.468 416.589 606.666 416.589 605.442C416.589 604.218 415.735 603.416 414.419 603.416H412.984V607.468H414.419V607.468Z" fill="black"/>
<defs>
<linearGradient id="paint0_linear_1601_20498" x1="405.914" y1="588.035" x2="405.522" y2="584.855" gradientUnits="userSpaceOnUse">
<stop stop-color="white"/>
<stop offset="1" stop-color="#696A6D"/>
</linearGradient>
</defs>
</svg>
